HIERARCHY
ROOT Hips
{
  OFFSET 5.72205e-005 65.662 3.42586
  CHANNELS 6 Xposition Yposition Zposition Zrotation Xrotation Yrotation
  JOINT Chest
  {
    OFFSET 0 8.7983 -4.7612
    CHANNELS 3 Zrotation Xrotation Yrotation
    JOINT Chest2
    {
      OFFSET 0 8.0291 0.4195
      CHANNELS 3 Zrotation Xrotation Yrotation
      JOINT Chest3
      {
        OFFSET 0 9.9351 -2.2114
        CHANNELS 3 Zrotation Xrotation Yrotation
        JOINT Neck
        {
          OFFSET 0 22.3885 -0.4656
          CHANNELS 3 Zrotation Xrotation Yrotation
          JOINT Head
          {
            OFFSET -0.0001 12.643 3.4389
            CHANNELS 3 Zrotation Xrotation Yrotation
            End Site
            {
              OFFSET 0.0001 17.6655 0.5274
            }
          }
        }
        JOINT LeftCollar
        {
          OFFSET 2.2603 21.606 7.4023
          CHANNELS 3 Zrotation Xrotation Yrotation
          JOINT LeftShoulder
          {
            OFFSET 13.5163 -1.1332 -5.0146
            CHANNELS 3 Zrotation Xrotation Yrotation
            JOINT LeftElbow
            {
              OFFSET -0.0995 -28.05 -0.2431
              CHANNELS 3 Zrotation Xrotation Yrotation
              JOINT LeftWrist
              {
                OFFSET 0.0679 -23.3996 -0.1402
                CHANNELS 3 Zrotation Xrotation Yrotation
                JOINT LeftFinger1
                {
                  OFFSET 0.7932 -9.069 2.5189
                  CHANNELS 3 Zrotation Xrotation Yrotation
                  JOINT LeftFinger11
                  {
                    OFFSET -0.8272 -3.3923 0.5977
                    CHANNELS 3 Zrotation Xrotation Yrotation
                    JOINT LeftFinger12
                    {
                      OFFSET -0.5649 -2.3158 0.4082
                      CHANNELS 3 Zrotation Xrotation Yrotation
                      End Site
                      {
                        OFFSET -0.4919 -1.6479 0.2673
                      }
                    }
                  }
                }
                JOINT LeftFinger2
                {
                  OFFSET 0.9159 -9.2044 0.2193
                  CHANNELS 3 Zrotation Xrotation Yrotation
                  JOINT LeftFinger21
                  {
                    OFFSET 0.0117 -4.1944 -0.0248
                    CHANNELS 3 Zrotation Xrotation Yrotation
                    JOINT LeftFinger22
                    {
                      OFFSET 0.0071 -2.3249 -0.0142
                      CHANNELS 3 Zrotation Xrotation Yrotation
                      End Site
                      {
                        OFFSET -0.1475 -2.0882 0.0028
                      }
                    }
                  }
                }
                JOINT LeftFinger3
                {
                  OFFSET 0.6113 -8.7231 -2.0637
                  CHANNELS 3 Zrotation Xrotation Yrotation
                  JOINT LeftFinger31
                  {
                    OFFSET -0.1927 -3.8059 -0.2383
                    CHANNELS 3 Zrotation Xrotation Yrotation
                    JOINT LeftFinger32
                    {
                      OFFSET -0.1091 -2.1688 -0.1362
                      CHANNELS 3 Zrotation Xrotation Yrotation
                      End Site
                      {
                        OFFSET -0.2358 -1.9176 -0.0906
                      }
                    }
                  }
                }
                JOINT LeftFinger4
                {
                  OFFSET -0.6151 -8.0947 -3.5641
                  CHANNELS 3 Zrotation Xrotation Yrotation
                  JOINT LeftFinger41
                  {
                    OFFSET -0.4882 -2.341 -0.6462
                    CHANNELS 3 Zrotation Xrotation Yrotation
                    JOINT LeftFinger42
                    {
                      OFFSET -0.3575 -1.7167 -0.4742
                      CHANNELS 3 Zrotation Xrotation Yrotation
                      End Site
                      {
                        OFFSET -0.4187 -1.5237 -0.3496
                      }
                    }
                  }
                }
                JOINT LeftFinger0
                {
                  OFFSET -1.42 -1.8761 1.4223
                  CHANNELS 3 Zrotation Xrotation Yrotation
                  JOINT LeftFinger01
                  {
                    OFFSET -1.1471 -3.4929 2.6334
                    CHANNELS 3 Zrotation Xrotation Yrotation
                    JOINT LeftFinger02
                    {
                      OFFSET -0.823 -2.3 1.6571
                      CHANNELS 3 Zrotation Xrotation Yrotation
                      End Site
                      {
                        OFFSET -0.5822 -1.6914 1.1582
                      }
                    }
                  }
                }
              }
            }
          }
        }
        JOINT RightCollar
        {
          OFFSET -2.2603 21.606 7.4023
          CHANNELS 3 Zrotation Xrotation Yrotation
          JOINT RightShoulder
          {
            OFFSET -13.5187 -1.1334 -5.0155
            CHANNELS 3 Zrotation Xrotation Yrotation
            JOINT RightElbow
            {
              OFFSET 0.0994 -28.0499 -0.2431
              CHANNELS 3 Zrotation Xrotation Yrotation
              JOINT RightWrist
              {
                OFFSET -0.0679 -23.3996 -0.1402
                CHANNELS 3 Zrotation Xrotation Yrotation
                JOINT RightFinger1
                {
                  OFFSET -0.7932 -9.0691 2.5189
                  CHANNELS 3 Zrotation Xrotation Yrotation
                  JOINT RightFinger11
                  {
                    OFFSET 0.8272 -3.3923 0.5977
                    CHANNELS 3 Zrotation Xrotation Yrotation
                    JOINT RightFinger12
                    {
                      OFFSET 0.565 -2.3158 0.4082
                      CHANNELS 3 Zrotation Xrotation Yrotation
                      End Site
                      {
                        OFFSET 0.4919 -1.6479 0.2673
                      }
                    }
                  }
                }
                JOINT RightFinger2
                {
                  OFFSET -0.916 -9.2044 0.2193
                  CHANNELS 3 Zrotation Xrotation Yrotation
                  JOINT RightFinger21
                  {
                    OFFSET -0.0117 -4.1944 -0.0248
                    CHANNELS 3 Zrotation Xrotation Yrotation
                    JOINT RightFinger22
                    {
                      OFFSET -0.0071 -2.3249 -0.0142
                      CHANNELS 3 Zrotation Xrotation Yrotation
                      End Site
                      {
                        OFFSET 0.1475 -2.0882 0.0028
                      }
                    }
                  }
                }
                JOINT RightFinger3
                {
                  OFFSET -0.6113 -8.7231 -2.0637
                  CHANNELS 3 Zrotation Xrotation Yrotation
                  JOINT RightFinger31
                  {
                    OFFSET 0.1927 -3.8059 -0.2383
                    CHANNELS 3 Zrotation Xrotation Yrotation
                    JOINT RightFinger32
                    {
                      OFFSET 0.1091 -2.1688 -0.1362
                      CHANNELS 3 Zrotation Xrotation Yrotation
                      End Site
                      {
                        OFFSET 0.2358 -1.9176 -0.0906
                      }
                    }
                  }
                }
                JOINT RightFinger4
                {
                  OFFSET 0.6151 -8.0947 -3.564
                  CHANNELS 3 Zrotation Xrotation Yrotation
                  JOINT RightFinger41
                  {
                    OFFSET 0.4882 -2.341 -0.6462
                    CHANNELS 3 Zrotation Xrotation Yrotation
                    JOINT RightFinger42
                    {
                      OFFSET 0.3574 -1.7166 -0.4742
                      CHANNELS 3 Zrotation Xrotation Yrotation
                      End Site
                      {
                        OFFSET 0.4187 -1.5237 -0.3496
                      }
                    }
                  }
                }
                JOINT RightFinger0
                {
                  OFFSET 1.4199 -1.8761 1.4221
                  CHANNELS 3 Zrotation Xrotation Yrotation
                  JOINT RightFinger01
                  {
                    OFFSET 1.1472 -3.4929 2.6336
                    CHANNELS 3 Zrotation Xrotation Yrotation
                    JOINT RightFinger02
                    {
                      OFFSET 0.8229 -2.3 1.6571
                      CHANNELS 3 Zrotation Xrotation Yrotation
                      End Site
                      {
                        OFFSET 0.5822 -1.6914 1.1582
                      }
                    }
                  }
                }
              }
            }
          }
        }
      }
    }
  }
  JOINT RightHip
  {
    OFFSET -9.412 3.9771 -0.7758
    CHANNELS 3 Zrotation Xrotation Yrotation
    JOINT RightKnee
    {
      OFFSET -0.7531 -40.938 0
      CHANNELS 3 Zrotation Xrotation Yrotation
      JOINT RightAnkle
      {
        OFFSET 0 -40.1986 0
        CHANNELS 3 Zrotation Xrotation Yrotation
        JOINT RightToe
        {
          OFFSET 0 -4.4182 9.239
          CHANNELS 3 Zrotation Xrotation Yrotation
          End Site
          {
            OFFSET 0 0 6.1981
          }
        }
      }
    }
  }
  JOINT LeftHip
  {
    OFFSET 9.4119 3.9773 -0.7758
    CHANNELS 3 Zrotation Xrotation Yrotation
    JOINT LeftKnee
    {
      OFFSET 0.7532 -40.9383 0
      CHANNELS 3 Zrotation Xrotation Yrotation
      JOINT LeftAnkle
      {
        OFFSET 0 -40.1986 0
        CHANNELS 3 Zrotation Xrotation Yrotation
        JOINT LeftToe
        {
          OFFSET 0 -4.4182 9.239
          CHANNELS 3 Zrotation Xrotation Yrotation
          End Site
          {
            OFFSET 0 0 6.1981
          }
        }
      }
    }
  }
}
MOTION
Frames:	4
Frame Time:	0.0333333
-1.08388 3.61476 -52.3259 -179.651 88.9936 -0.355027 -0.0349407 1.69089 -0.277721 -0.0617177 3.38192 -0.554771 -0.0617177 3.38192 -0.55477 -7.41321e-006 43.9984 1.2285e-005 -1.12965e-006 -79.3071 -8.78547e-007 -15.6015 -4.00435 9.21918 81.4015 -63.8404 2.12699 -25.1115 -51.1733 1.2811 -20.3042 -31.3439 37.515 -1.13556e-014 -7.95139e-016 3.97569e-016 -2.87052e-006 7.50004e-007 3.3661e-007 5.53491e-015 7.95139e-016 -6.95746e-016 -1.13556e-014 -7.95139e-016 3.97569e-016 -0.0128018 0.00232128 8.48103e-005 1.19271e-015 1.59028e-015 -2.98177e-016 -1.13556e-014 -7.95139e-016 3.97569e-016 -0.0160404 0.00299244 0.000857266 -1.73937e-015 0 -2.98177e-016 -1.13556e-014 -7.95139e-016 3.97569e-016 -0.0125252 0.00310789 0.00281406 1.94436e-015 7.95139e-016 -2.98177e-016 -1.13556e-014 -7.95139e-016 3.97569e-016 -2.87052e-006 7.50004e-007 3.3661e-007 5.53491e-015 7.95139e-016 -6.95746e-016 14.7963 -3.77878 -14.715 -81.8829 -67.8002 -2.98368 24.7216 -50.746 -2.01405 22.2545 -31.0481 -36.6383 3.93687e-015 3.97569e-016 3.23025e-016 7.5494e-006 1.2496e-006 3.64704e-007 -2.17032e-015 -3.97569e-016 3.72721e-016 3.93687e-015 3.97569e-016 3.23025e-016 0.0129806 0.00232326 -8.67458e-005 1.1538e-005 3.91587e-007 -6.22318e-007 3.93687e-015 3.97569e-016 3.23025e-016 0.016335 0.00303391 -0.000872541 -5.42232e-015 -7.95139e-016 -4.96962e-017 3.93687e-015 3.97569e-016 3.23025e-016 0.0145449 0.00367189 -0.00325494 -3.82195e-015 0 8.69683e-016 3.93687e-015 3.97569e-016 3.23025e-016 7.5494e-006 1.2496e-006 3.64704e-007 -2.17032e-015 -3.97569e-016 3.72721e-016 -48.3446 -26.3724 -33.1847 -39.8427 72.199 42.1221 -27.2338 39.0315 28.9918 3.40872e-007 5.06454e-008 -1.52834e-006 48.3381 -26.3768 33.1501 39.7564 72.2234 -42.0567 27.2082 39.0634 -28.9592 6.50798e-008 -7.91646e-008 3.05185e-006 
-1.08388 3.61476 -52.3259 -179.651 88.9936 -0.355028 -0.0342398 1.57416 -0.277884 -0.0608729 3.14849 -0.555142 -0.0608727 3.14848 -0.55514 -1.80519e-006 43.9984 3.37684e-006 -1.94261e-006 -77.1594 -2.01077e-006 -15.8191 -3.60611 8.99329 81.4015 -63.8404 2.12706 -24.5757 -50.5867 1.72208 -20.7558 -31.4726 37.257 1.55578e-008 4.26532e-007 2.12864e-007 -7.7789e-009 -4.2398e-007 -1.06432e-007 8.34574e-006 6.82827e-007 -4.3241e-007 1.55578e-008 4.26532e-007 2.12864e-007 -0.012796 0.00232377 8.52164e-005 -5.44237e-008 4.27209e-007 -7.45028e-007 1.55578e-008 4.26532e-007 2.12864e-007 -0.015988 0.0029884 0.000854843 -1.39925e-007 4.24401e-007 -1.91579e-006 1.55578e-008 4.26532e-007 2.12864e-007 -0.0126009 0.00312792 0.00282967 -2.87189e-006 3.23462e-007 3.35594e-007 1.55578e-008 4.26532e-007 2.12864e-007 -7.7789e-009 -4.2398e-007 -1.06432e-007 8.34574e-006 6.82827e-007 -4.3241e-007 15.0113 -3.39237 -14.4694 -81.8829 -67.8002 -2.98373 24.2167 -50.1684 -2.4262 22.7132 -31.141 -36.3622 -2.44404e-015 3.97569e-016 1.2424e-017 -5.62071e-015 0 3.16813e-016 7.36513e-016 -7.95139e-016 -1.92573e-016 -2.44404e-015 3.97569e-016 1.2424e-017 0.0129646 0.00231981 -8.51905e-005 5.32254e-015 0 -2.04997e-016 -2.44404e-015 3.97569e-016 1.2424e-017 0.0163089 0.00302735 -0.000871296 -5.23945e-016 3.97569e-016 -9.93923e-017 -2.44404e-015 3.97569e-016 1.2424e-017 0.014594 0.00367924 -0.0032626 6.28559e-015 -3.97569e-016 -1.42876e-016 -2.44404e-015 3.97569e-016 1.2424e-017 -5.62071e-015 0 3.16813e-016 7.36513e-016 -7.95139e-016 -1.92573e-016 -48.3445 -26.3726 -33.1847 -39.843 72.199 42.1223 -27.2338 39.0315 28.9918 4.41849e-008 2.7503e-007 4.58464e-006 48.338 -26.3769 33.15 39.7564 72.2234 -42.0567 27.2082 39.0634 -28.9592 -4.96962e-016 0 3.18055e-015 
-1.08388 3.61476 -52.3259 -179.651 88.9936 -0.355027 -0.0336118 1.46951 -0.278032 -0.0601168 2.93917 -0.555475 -0.0601172 2.93917 -0.555477 -3.01785e-005 43.9982 5.07767e-005 2.96805e-007 -75.2226 2.25399e-007 -16.013 -3.24845 8.79209 81.4016 -63.8404 2.12711 -24.1072 -50.0583 2.10535 -21.162 -31.5864 37.0243 3.54706e-015 -7.95139e-016 -1.98785e-016 3.85145e-016 -7.95139e-016 -0 3.60918e-015 0 4.96962e-016 3.54706e-015 -7.95139e-016 -1.98785e-016 -0.0128059 0.00232281 8.51558e-005 -1.14239e-014 0 -9.93923e-017 3.54706e-015 -7.95139e-016 -1.98785e-016 -0.0160299 0.00299201 0.000854862 3.13028e-008 -1.59385e-009 4.2572e-007 3.54706e-015 -7.95139e-016 -1.98785e-016 -0.0126346 0.00313548 0.00283772 1.40951e-014 7.95139e-016 -0 3.54706e-015 -7.95139e-016 -1.98785e-016 3.85145e-016 -7.95139e-016 -0 3.60918e-015 0 4.96962e-016 15.2027 -3.04526 -14.2503 -81.8827 -67.8002 -2.98355 23.7749 -49.6482 -2.78452 23.1255 -31.2227 -36.1134 1.44546e-015 3.97569e-016 1.67725e-016 -1.74014e-015 3.97569e-016 -1.61513e-016 -3.99164e-009 2.13295e-007 -1.06647e-007 1.44546e-015 3.97569e-016 1.67725e-016 0.0129158 0.00231027 -8.49573e-005 -3.98732e-009 2.13295e-007 -1.06647e-007 1.44546e-015 3.97569e-016 1.67725e-016 0.0163403 0.00303888 -0.000874737 -3.98596e-009 2.13295e-007 -1.06647e-007 1.44546e-015 3.97569e-016 1.67725e-016 0.0146034 0.00368385 -0.00326775 -3.98478e-009 2.08258e-010 -1.06647e-007 1.44546e-015 3.97569e-016 1.67725e-016 -1.74014e-015 3.97569e-016 -1.61513e-016 -3.99164e-009 2.13295e-007 -1.06647e-007 -48.3445 -26.3726 -33.1847 -39.843 72.199 42.1223 -27.2338 39.0315 28.9918 4.41849e-008 2.7503e-007 4.58464e-006 48.338 -26.3769 33.15 39.7564 72.2234 -42.0567 27.2082 39.0634 -28.9592 -9.93923e-017 9.93923e-017 6.36111e-015 
-1.08388 3.61476 -52.3259 -179.651 88.9936 -0.355025 -0.0329826 1.36475 -0.278165 -0.0593598 2.72968 -0.555778 -0.0593596 2.72967 -0.555778 -1.01541e-005 43.9984 1.69237e-005 1.14577e-006 -73.2773 1.18682e-006 -16.2056 -2.88976 8.59215 81.4015 -63.8404 2.12703 -23.6489 -49.5276 2.47793 -21.5694 -31.6989 36.7902 1.36913e-014 1.59028e-015 -4.47266e-016 4.13721e-015 7.95139e-016 -1.98785e-016 7.3364e-015 0 2.98177e-016 1.36913e-014 1.59028e-015 -4.47266e-016 -0.0128665 0.00233415 8.54629e-005 3.14328e-015 0 3.47873e-016 1.36913e-014 1.59028e-015 -4.47266e-016 -0.0160566 0.00299864 0.000858812 1.76004e-006 -1.07938e-006 -8.57106e-007 1.36913e-014 1.59028e-015 -4.47266e-016 -0.0126178 0.00312869 0.00283674 -3.43525e-015 0 3.97569e-016 1.36913e-014 1.59028e-015 -4.47266e-016 4.13721e-015 7.95139e-016 -1.98785e-016 7.3364e-015 0 2.98177e-016 15.3928 -2.69706 -14.0326 -81.8827 -67.8002 -2.98356 23.3426 -49.126 -3.13312 23.5386 -31.3027 -35.8638 3.54829e-006 8.01633e-007 6.26536e-007 -2.83245e-008 -4.26416e-007 -7.46513e-007 2.02318e-008 8.53009e-007 5.33224e-007 3.54829e-006 8.01633e-007 6.26536e-007 0.0129338 0.00231558 -8.70892e-005 2.021e-008 8.52891e-007 5.33224e-007 3.54829e-006 8.01633e-007 6.26536e-007 0.0163724 0.00303994 -0.000873688 -8.08125e-009 4.26593e-007 -2.1329e-007 3.54829e-006 8.01633e-007 6.26536e-007 0.0145763 0.00367731 -0.00326291 4.7621e-006 2.33082e-007 -2.8866e-007 3.54829e-006 8.01633e-007 6.26536e-007 -2.83245e-008 -4.26416e-007 -7.46513e-007 2.02318e-008 8.53009e-007 5.33224e-007 -48.3445 -26.3726 -33.1847 -39.8431 72.1991 42.1223 -27.2338 39.0315 28.9918 -3.20039e-007 -4.02635e-008 1.1692e-010 48.338 -26.3769 33.15 39.7564 72.2234 -42.0567 27.2082 39.0634 -28.9592 -3.97569e-016 -9.93923e-017 -0 
